<?xml version="1.0" standalone="no"?>
<!DOCTYPE svg PUBLIC "-//W3C//DTD SVG 20010904//EN"
 "http://www.w3.org/TR/2001/REC-SVG-20010904/DTD/svg10.dtd">
<svg version="1.0" xmlns="http://www.w3.org/2000/svg"
 width="1326.000000pt" height="732.000000pt" viewBox="0 0 1326.000000 732.000000"
 preserveAspectRatio="xMidYMid meet">

<g transform="translate(0.000000,732.000000) scale(0.100000,-0.100000)"
fill="#000000" stroke="none">
<path d="M316 6416 c-9 -496 -27 -2978 -22 -2983 2 -3 289 -5 638 -6 560 -2
647 0 758 16 386 55 717 174 994 357 131 86 197 146 287 263 165 213 261 445
304 733 19 126 21 406 5 539 -43 356 -203 685 -441 909 -206 194 -557 371
-879 445 -236 54 -266 56 -1261 64 l-377 3 -6 -340z m1324 243 c549 -50 1051
-302 1302 -655 236 -331 326 -779 247 -1241 -63 -377 -265 -711 -539 -892
-204 -134 -477 -248 -733 -305 -263 -59 -291 -61 -939 -61 -328 0 -599 3 -603
6 -6 7 14 3134 21 3156 4 16 1061 8 1244 -8z"/>
<path d="M1177 5518 c-4 -244 -7 -638 -7 -877 l0 -434 173 6 c94 4 213 13 262
22 365 59 622 231 760 504 132 263 134 497 8 743 -129 252 -411 423 -768 467
-49 6 -165 11 -256 11 l-166 0 -6 -442z m428 351 c236 -32 429 -118 565 -249
121 -117 190 -258 212 -433 9 -77 8 -104 -5 -167 -63 -302 -232 -514 -502
-628 -144 -60 -367 -102 -550 -102 l-75 0 0 795 0 795 139 0 c77 0 174 -5 216
-11z"/>
<path d="M4310 6378 c-92 -189 -459 -932 -814 -1652 -355 -720 -644 -1311
-642 -1313 1 -2 214 -6 472 -10 l469 -6 122 247 123 246 422 -1 c233 -1 475
-4 538 -8 l114 -6 116 -241 115 -242 270 -7 c149 -3 363 -5 476 -3 l206 3
-790 1668 -790 1667 -119 0 -120 0 -168 -342z m1106 -1319 c412 -870 751
-1585 752 -1590 2 -5 -159 -8 -382 -7 l-386 3 -118 245 -118 245 -309 6 c-171
4 -435 7 -588 8 l-277 1 -122 -245 -123 -245 -382 0 c-220 0 -383 4 -383 9 0
7 1391 2836 1519 3089 l31 62 69 0 68 0 749 -1581z"/>
<path d="M4449 4823 l-135 -278 264 -8 c145 -5 266 -6 269 -4 4 5 -243 546
-256 560 -4 4 -68 -118 -142 -270z m235 -115 l45 -98 -144 0 c-80 0 -145 3
-145 6 0 4 33 74 72 157 l73 150 27 -59 c15 -32 47 -103 72 -156z"/>
<path d="M6466 6617 c-5 -89 -28 -3229 -23 -3233 1 -1 196 -5 433 -9 l431 -8
6 183 c4 101 7 367 7 592 0 224 3 408 8 408 4 0 207 -268 450 -595 l444 -595
321 2 321 3 14 50 c7 28 36 124 64 216 l50 165 -246 373 c-135 204 -246 375
-246 379 0 4 25 20 56 36 72 38 192 151 266 250 71 96 149 251 185 371 26 87
27 97 27 335 0 238 -1 247 -27 333 -51 164 -122 281 -257 421 -212 220 -435
331 -768 381 -123 19 -268 24 -954 30 l-556 5 -6 -93z m984 3 c480 -9 516 -12
720 -65 345 -89 673 -395 760 -706 47 -172 49 -420 4 -599 -46 -182 -171 -392
-306 -514 -34 -31 -101 -76 -152 -102 -50 -26 -93 -48 -94 -50 -2 -1 114 -182
258 -401 l263 -398 -12 -40 c-6 -22 -29 -98 -50 -170 l-39 -130 -269 -3 -270
-2 -505 675 -505 675 -6 -187 c-4 -104 -7 -405 -7 -670 l0 -483 -347 0 c-192
0 -354 4 -361 9 -11 7 -12 271 -2 1577 6 863 13 1575 15 1582 5 14 214 15 905
2z"/>
<path d="M7250 5497 l0 -414 268 -7 c299 -8 369 -1 464 51 205 111 292 350
196 537 -31 61 -115 143 -175 171 -122 58 -185 68 -480 73 l-273 4 0 -415z
m566 314 c161 -33 248 -92 297 -200 30 -64 29 -169 -1 -234 -47 -105 -125
-172 -240 -207 -54 -17 -93 -20 -257 -20 -106 0 -213 3 -239 6 l-46 7 0 333 0
334 198 0 c153 0 217 -4 288 -19z"/>
<path d="M9136 6536 c-3 -82 -6 -277 -6 -433 l0 -283 233 0 c129 0 316 -3 417
-7 l183 -6 -6 -1109 -7 -1108 28 0 c110 0 211 -96 212 -201 l0 -36 242 -6
c133 -4 298 -7 367 -7 l126 0 -3 1233 -4 1232 416 -3 416 -3 -2 433 -3 433
-855 7 c-470 3 -1056 8 -1301 10 l-446 4 -7 -150z m1677 58 l857 -6 0 -354 0
-354 -417 0 -416 0 7 -1230 6 -1230 -292 2 -292 3 -7 32 c-17 86 -101 173
-188 196 l-44 12 7 1112 8 1113 -249 0 c-138 0 -325 3 -416 7 l-167 6 0 347
c0 191 3 350 8 354 4 5 171 5 372 2 201 -3 751 -9 1223 -12z"/>
<path d="M9242 4084 c-118 -83 -344 -865 -476 -1652 -33 -192 -34 -199 -81
-277 -145 -245 -297 -381 -441 -393 -134 -11 -214 69 -245 242 -47 275 158
816 354 930 123 73 179 21 127 -117 -29 -77 -79 -144 -157 -208 -37 -30 -69
-63 -71 -73 -6 -27 22 -61 88 -105 77 -51 131 -67 171 -51 83 35 172 249 173
420 1 76 -2 91 -28 138 -37 66 -116 142 -187 178 -43 22 -71 28 -141 32 -80 4
-92 2 -150 -25 -197 -92 -406 -395 -484 -701 -16 -62 -28 -85 -85 -155 -93
-114 -215 -243 -223 -236 -15 15 194 787 239 888 38 81 34 100 -25 139 -83 55
-151 82 -203 82 l-48 0 -30 -67 c-17 -38 -49 -124 -71 -193 -196 -612 -385
-1011 -510 -1076 -37 -19 -54 -18 -78 6 -29 29 -26 79 16 254 74 311 219 790
270 888 27 52 19 73 -43 114 -113 75 -213 102 -246 67 -33 -37 -121 -269 -182
-480 -52 -179 -77 -240 -152 -383 -69 -129 -91 -163 -170 -266 -115 -150 -208
-213 -324 -222 -84 -6 -129 9 -173 58 -51 57 -77 150 -77 275 1 382 259 879
449 863 48 -4 63 -32 50 -91 -23 -103 -99 -213 -194 -278 -38 -26 -44 -35 -44
-64 0 -30 7 -40 53 -74 69 -52 129 -81 166 -81 97 0 205 222 206 420 0 87 -3
100 -30 148 -37 67 -118 142 -193 179 -50 24 -69 28 -147 28 -84 0 -94 -2
-155 -35 -166 -89 -340 -329 -433 -596 -53 -151 -71 -251 -71 -394 0 -142 12
-207 55 -295 78 -159 198 -234 399 -251 95 -8 177 7 260 48 81 39 239 194 324
318 57 83 58 84 52 45 -3 -22 -9 -78 -12 -125 -6 -75 -4 -91 15 -128 50 -98
151 -162 259 -162 135 0 245 95 377 326 24 43 45 72 44 64 0 -8 -17 -80 -37
-160 l-37 -145 -155 -95 c-205 -126 -286 -187 -363 -270 -106 -115 -154 -237
-145 -374 14 -207 184 -317 425 -276 145 24 243 97 332 247 69 117 173 421
262 768 l41 160 55 45 c30 25 102 94 159 153 l104 108 0 -58 c1 -142 56 -287
143 -377 93 -94 209 -131 390 -124 96 3 110 6 179 41 86 42 201 147 286 261
l52 69 0 -105 c0 -70 5 -120 15 -149 43 -121 165 -162 293 -99 78 39 206 173
287 299 32 50 60 90 61 88 1 -1 -3 -36 -8 -77 -20 -159 10 -254 100 -311 59
-37 138 -40 210 -7 67 31 213 182 291 301 35 53 65 96 67 95 1 -2 -1 -23 -6
-48 -20 -108 -23 -206 -7 -237 36 -70 142 -135 221 -137 l50 -1 13 80 c37 216
237 683 417 974 60 95 176 255 182 249 1 -2 -19 -75 -47 -163 -88 -285 -164
-617 -200 -878 -14 -105 -5 -146 43 -196 72 -75 189 -93 285 -46 64 32 163
128 240 232 l60 81 7 -66 c17 -175 87 -258 234 -278 139 -18 263 76 404 309
56 91 56 87 2 -99 l-36 -120 -64 -40 c-145 -88 -313 -199 -371 -246 -79 -62
-155 -158 -195 -245 -30 -63 -32 -76 -33 -173 0 -95 3 -110 27 -156 35 -66
106 -128 170 -150 39 -13 74 -15 157 -12 124 6 195 29 270 88 52 41 146 173
181 255 64 147 155 438 219 701 l29 121 175 174 c237 236 344 384 452 624 49
108 54 135 29 159 -36 37 -74 13 -104 -64 -37 -94 -120 -248 -178 -328 -88
-123 -322 -384 -322 -360 0 60 203 784 259 926 l21 54 -31 29 c-17 16 -67 47
-112 69 -62 32 -91 40 -122 38 -36 -3 -42 -7 -64 -49 l-25 -46 -114 55 c-105
52 -119 56 -186 56 -64 1 -77 -2 -131 -34 -206 -122 -399 -430 -491 -788 -39
-152 -57 -190 -153 -333 -80 -119 -170 -219 -196 -219 -16 0 -17 7 -11 59 23
203 216 885 310 1096 16 36 25 69 21 82 -13 53 -201 140 -279 130 -102 -14
-327 -315 -526 -704 -29 -57 -54 -103 -55 -103 -12 0 113 399 171 547 24 61
44 118 44 127 0 40 -183 136 -261 136 l-40 0 -38 -82 c-50 -110 -109 -279
-161 -463 -71 -254 -250 -588 -402 -750 -98 -106 -108 -91 -67 101 76 360 210
805 313 1046 21 48 -206 172 -280 154 -15 -4 -32 -23 -48 -54 -44 -87 -125
-316 -175 -498 -42 -150 -62 -204 -128 -333 -89 -178 -187 -331 -266 -415 -57
-60 -80 -67 -85 -25 -4 33 59 400 109 632 150 701 342 1307 458 1451 17 21 31
44 31 51 0 31 -111 95 -230 133 -100 31 -114 33 -138 16z m2913 -1150 c18 -8
36 -21 38 -28 6 -14 -166 -521 -232 -684 -86 -214 -196 -407 -255 -445 -90
-59 -122 26 -92 243 52 371 226 781 375 884 66 46 114 55 166 30z m-5354
-1703 c-85 -259 -116 -321 -181 -366 -102 -71 -196 -2 -195 145 1 91 35 153
144 261 92 92 304 240 309 216 1 -7 -33 -122 -77 -256z m4988 112 c-76 -248
-133 -405 -160 -443 -72 -99 -164 -125 -219 -63 -59 65 -61 162 -8 271 34 70
167 197 298 284 63 42 118 77 121 77 4 1 -11 -56 -32 -126z"/>
<path d="M9890 3492 c-49 -49 -60 -102 -32 -166 50 -112 208 -113 262 -1 30
63 21 117 -30 167 -35 36 -41 38 -100 38 -59 0 -65 -2 -100 -38z"/>
</g>
</svg>
