<?xml version="1.0" standalone="no"?>
<!DOCTYPE svg PUBLIC "-//W3C//DTD SVG 20010904//EN"
 "http://www.w3.org/TR/2001/REC-SVG-20010904/DTD/svg10.dtd">
<svg version="1.0" xmlns="http://www.w3.org/2000/svg"
 width="624.000000pt" height="120.000000pt" viewBox="0 0 624.000000 120.000000"
 preserveAspectRatio="xMidYMid meet">

<g transform="translate(0.000000,120.000000) scale(0.100000,-0.100000)"
fill="#000000" stroke="none">
<path d="M750 820 l0 -70 75 0 75 0 0 -215 0 -215 75 0 75 0 0 215 0 215 70 0
70 0 0 70 0 70 -220 0 -220 0 0 -70z"/>
<path d="M1250 605 l0 -285 65 0 64 0 3 108 3 107 95 0 95 0 3 -107 3 -108 69
0 70 0 0 285 0 286 -67 -3 -68 -3 -3 -108 -3 -108 -97 3 -97 3 -3 108 -3 107
-64 0 -65 0 0 -285z"/>
<path d="M2052 878 c-9 -12 -53 -101 -212 -433 -29 -60 -55 -113 -57 -117 -2
-5 29 -8 70 -8 l75 0 16 40 16 40 105 0 105 0 20 -40 20 -40 71 0 c39 0 69 4
67 9 -13 38 -273 561 -279 561 -3 0 -11 -6 -17 -12z m48 -350 c0 -14 -8 -18
-35 -18 -40 0 -40 -1 -19 48 l15 37 19 -25 c11 -14 20 -33 20 -42z"/>
<path d="M2420 605 l0 -285 65 0 65 0 0 145 c0 80 4 145 8 145 5 0 17 -8 28
-17 10 -10 71 -64 134 -119 63 -56 126 -114 139 -128 14 -14 33 -26 43 -26 17
0 18 16 18 285 l0 285 -70 0 -70 0 0 -150 c0 -82 -2 -150 -5 -150 -3 0 -23 15
-43 34 -162 147 -298 266 -304 266 -5 0 -8 -128 -8 -285z"/>
<path d="M3000 605 l0 -285 65 0 65 0 0 100 c0 55 4 100 9 100 5 0 46 -45 91
-100 l81 -100 81 0 c76 0 80 1 66 18 -46 55 -188 252 -188 261 0 9 45 83 141
230 16 25 29 48 29 53 0 4 -33 8 -73 8 l-73 0 -35 -52 c-95 -141 -114 -166
-121 -162 -5 3 -8 52 -8 110 l0 104 -65 0 -65 0 0 -285z"/>
<path d="M3613 883 c-12 -2 -42 -22 -67 -44 -96 -85 -73 -214 49 -270 22 -10
48 -19 58 -19 38 0 87 -31 87 -55 0 -32 -23 -47 -67 -43 -29 2 -40 9 -48 26
-9 21 -14 23 -55 17 -99 -14 -104 -19 -74 -78 35 -69 93 -101 184 -101 81 0
139 28 177 85 38 57 36 117 -4 167 -29 35 -51 47 -166 88 -58 21 -76 47 -51
75 28 31 94 23 94 -12 0 -23 34 -25 100 -5 52 16 54 29 12 90 -48 69 -132 98
-229 79z"/>
<path d="M3948 884 c-5 -4 -8 -133 -8 -287 l0 -279 148 3 c143 4 150 5 214 37
74 36 113 80 134 150 32 105 8 220 -61 286 -66 65 -141 89 -295 94 -69 2 -128
1 -132 -4z m279 -154 c81 -36 107 -129 58 -203 -30 -44 -97 -77 -154 -77 l-41
0 0 150 0 150 48 0 c26 0 66 -9 89 -20z"/>
<path d="M4701 854 c-12 -19 -21 -37 -21 -39 0 -4 -210 -437 -231 -477 -9 -16
-3 -18 64 -18 l74 0 18 40 18 41 106 -3 106 -3 18 -37 17 -38 70 0 c39 0 70 3
70 6 0 3 -31 70 -69 147 -38 78 -99 204 -135 280 -36 75 -70 137 -75 137 -5 0
-18 -16 -30 -36z m59 -325 c0 -15 -7 -19 -35 -19 -40 0 -41 0 -18 47 l17 36
18 -23 c10 -12 18 -31 18 -41z"/>
<path d="M5080 606 l0 -286 65 0 65 0 0 105 c0 58 4 105 8 105 5 0 40 -42 78
-92 38 -51 74 -99 81 -106 12 -12 163 -18 163 -6 0 4 -27 47 -61 97 l-60 90
35 36 c44 45 56 78 56 147 0 62 -17 102 -57 134 -56 44 -93 53 -235 58 l-138
4 0 -286z m281 115 c24 -29 24 -49 -1 -81 -16 -22 -26 -25 -82 -25 l-63 0 -3
69 -3 68 67 -4 c55 -3 70 -8 85 -27z"/>
<path d="M5574 877 c-3 -8 -4 -39 -2 -68 l3 -54 73 -3 72 -3 0 -214 0 -215 78
0 77 0 -3 215 -3 214 73 3 73 3 0 65 0 65 -218 3 c-178 2 -218 0 -223 -11z"/>
<path d="M390 853 c0 -9 -5 -45 -11 -80 l-11 -63 -39 0 c-32 0 -39 -4 -43 -22
-3 -13 -7 -35 -11 -50 -5 -27 -4 -28 35 -28 l40 0 0 -45 c0 -47 -2 -49 -53
-45 -29 2 -32 -4 -40 -62 -5 -36 -5 -37 31 -40 l37 -3 -3 -57 -4 -58 50 0 49
0 6 50 c8 63 12 70 44 70 25 0 25 -1 21 -60 l-4 -61 50 3 51 3 5 45 c7 60 15
70 55 70 37 0 45 12 45 67 0 34 -1 35 -36 30 -42 -6 -49 5 -37 54 8 30 14 35
48 39 37 5 40 7 46 45 9 51 6 55 -37 55 l-35 0 7 81 7 80 -49 -3 -49 -3 -9
-77 -9 -78 -34 0 -35 0 6 40 c3 22 9 58 12 80 l6 40 -51 0 c-41 0 -51 -3 -51
-17z m128 -278 c3 -38 -6 -50 -40 -59 -26 -6 -28 -4 -28 21 0 56 11 74 39 71
21 -2 27 -9 29 -33z"/>
</g>
</svg>
